Patient4_TMGait_0pt2_03_right_20_EMG.mot
version=1
nRows=23
nColumns=33
inDegrees=no
endheader
time	1LAddLong	2LGlutMax	3LGlutMed	4LIliopsoas	5LSemiMemb	6LBicFemLong	7LRecFem	8LVastMed	9LVastLat	10LGasMed	11LTibAnt	12lTibPost	13LPeroneusLong	14LSol	15LExtDigLong	16LFlexDigLong	17RAddLong	18RGlutMax	19RGlutMed	20RIliopsoas	21RSemiMemb	22RBicFemLong	23RRecFem	24RVastMed	25RVastLat	26RGasMed	27RTibAnt	28RTibPost	29RPeroneusLong	30RSol	31RExtDigLong	32RFlexDigLong
42.95	-0.017548	0.092621	-0.16098	0.039063	-0.041504	0.14496	0.11856	-0.029602	-0.069885	0.006256	0.008392	-0.047455	0.10574	0.079498	-0.071106	-0.004578	0.224	0.72174	1.8243	0.076447	0.011902	-0.1474	0.29129	-0.027008	-0.053253	0.016022	-0.14877	0.004425	0.14267	-0.10101	-0.001068	-0.02655
42.951	-0.014954	0.12146	-0.34729	0.044861	-0.02243	0.12634	0.12039	-0.015106	-0.084229	0	0.011292	-0.052032	0.033417	0.13092	-0.088043	0.007629	0.27145	0.70984	1.5742	0.093231	0.006409	-0.12924	0.25757	-0.066376	-0.042114	0.012665	-0.23972	0.002899	0.11292	-0.11017	0.000458	-0.021362
42.952	-0.019684	0.21194	-0.34714	-0.005341	0.014038	0.11383	0.17258	-0.010071	-0.03479	0.018921	-0.001526	-0.04776	-0.020447	0.21881	-0.019073	0.008087	0.18463	0.75211	1.3826	0.16708	-0.019836	-0.12894	0.22842	-0.03418	-0.025482	0.011902	-0.45898	0.004425	0.082855	-0.034332	-0.001068	-0.015259
42.953	-0.020294	0.12283	-0.30426	-0.044556	0.018005	0.048523	0.07843	0.018463	0.11353	0.014343	0.014648	-0.042114	-0.008087	0.14969	0.016174	0.013123	0.15243	0.73242	1.5407	0.15121	-0.035095	-0.13367	0.1918	-0.072327	-0.017853	0.009766	0.13306	0.002899	0.020905	0.078278	-0.002136	-0.015564
42.954	-0.027313	0.049133	0.11749	-0.023804	0.023956	-0.055084	0.01358	0.014801	0.24353	-0.014648	0.002289	-0.053253	0.065613	0.025482	-0.031891	0.009613	0.099182	0.70679	1.6971	0.046692	-0.057983	-0.14252	0.14526	-0.046997	-0.012817	0.00412	0.30914	0.000305	0.044403	0.07019	0.001526	-0.019226
42.955	-0.029449	0.024567	-0.047607	0.015411	0.016022	-0.14755	0.089111	-0.004425	0.2124	-0.028687	0.00824	-0.039673	0.16296	0.088043	0.019379	0.014191	0.032043	0.64636	1.4751	0.062561	-0.072327	-0.12466	0.1207	-0.050507	-0.005951	-0.002441	0.15396	-0.004272	-0.024872	-0.016022	-0.005341	-0.015411
42.956	-0.03952	0.036774	-0.07843	0.02655	0.020142	-0.057678	0.15976	-0.006561	0.083313	0.096283	-0.001678	-0.062866	-0.047455	0.10223	0.061646	0.017242	-0.038605	0.62256	1.0114	0.024719	-0.049286	-0.088043	0.13214	-0.003204	0.003662	0.007019	0.2298	-0.000763	-0.027008	-0.064545	-0.001984	-0.022736
42.957	-0.036469	0.025787	-0.033264	0.018311	-0.008545	0.020142	0.065308	-0.01709	-0.032959	0.2359	-0.004425	-0.056305	-0.2478	0.11871	0.080261	0.014496	-0.004272	0.62424	0.92148	-0.028229	-0.061646	-0.098877	0.10254	-0.003204	0.013123	0.002136	0.215	0.00412	0.080872	-0.076752	-0.003052	-0.018921
42.958	-0.033112	0.039673	-0.15915	-0.019836	-0.032959	-0.008545	-0.006409	-0.027771	0.002899	0.15152	0.006256	-0.047302	-0.33173	0.073242	0.073395	0.021973	0.007172	0.62241	1.1876	-0.040894	-0.048981	-0.10315	0.10666	-0.032806	0.006104	0.006256	-0.082245	-0.005951	0.10941	-0.096893	-0.002899	-0.009003
42.959	-0.009308	0.066223	-0.086517	-0.015564	-0.016785	-0.092163	0.027466	-0.041351	0.067902	0.074921	0.035553	-0.037537	-0.014954	0.15976	0.098419	0.018616	0.005493	0.62286	1.158	-0.010986	-0.025635	-0.090942	0.12955	0.013733	-0.002899	0.005493	-0.45013	-0.002136	0.020905	-0.1265	-0.00473	-0.015259
42.96	0.009155	0.044556	0.036011	0.007019	0.024719	-0.088806	0.13504	-0.035706	0.038452	0.050812	0.06012	-0.026245	0.64651	0.077057	0.090942	0.008698	-0.038452	0.57999	0.84824	0.005646	-0.017548	-0.061951	0.13092	0.013733	0.006714	0.000916	-0.33707	0.003815	-0.049438	-0.10773	-0.003662	-0.006409
42.961	0.011749	0.031586	0.1387	0.014954	0.034027	-0.10696	0.082245	-0.020752	-0.009918	0.015411	0.032349	-0.024261	0.38696	0.089111	0.11093	0.021973	-0.030975	0.55405	0.79681	0.071411	-0.021667	-0.055695	0.11154	0.065765	0.027924	0.012512	-0.094299	0.000153	-0.001221	-0.026398	-0.002594	-0.013275
42.962	0.017242	0.007324	0.17136	0.015106	0.017395	-0.12741	-0.048065	0.007172	-0.023041	0.042572	0.024872	-0.033264	-0.392	0.23605	0.014191	0.02594	-0.061188	0.5304	0.84885	0.028076	-0.005646	-0.038757	0.10162	0.028992	0.018463	0.005951	0.22476	-0.000153	0.059814	0.027924	-0.000916	-0.014343
42.963	0.035553	0.068817	0.17654	0	0.033264	-0.11658	-0.13428	0.015411	-0.10391	0.017548	-0.036774	-0.034332	0.17639	0.18585	-0.13596	0.016632	-0.069885	0.46143	0.64179	0.083313	-0.030212	-0.026398	0.099335	0.046234	0.027466	0.005646	0.27054	-0.004883	0.043793	0.081177	0.00061	-0.012817
42.964	0.024719	0.030823	0.10147	0.012665	0.029907	-0.032196	0.034027	0.041656	-0.2446	-0.007019	-0.048828	-0.037994	-0.34302	0.31372	0.014801	0.018921	-0.14954	0.4422	0.56427	0.14542	-0.031738	0.009155	0.12375	0.081482	0.052032	0.006714	-0.12741	0.002594	0.05661	0.1503	0.00061	-0.015259
42.965	0.0177	-0.030518	0.001526	0.007019	0.04364	-0.032959	0.080414	0.048523	-0.25497	0.077057	-0.038605	-0.028229	-0.28824	0.21057	-0.11185	0.012665	-0.16907	0.35919	0.79407	0.14053	-0.02533	0.048676	0.10193	0.081024	0.052185	0.006256	-0.2919	-0.002136	0.12573	0.1709	0.00061	-0.0177
42.966	0.017395	0.030518	0.037384	0.016785	0.034332	-0.013428	-0.027313	0.065765	-0.25559	0.11887	-0.008087	-0.027313	0.29663	-0.31357	-0.12848	0.019989	-0.16037	0.35355	0.58579	0.14832	-0.013733	0.06012	0.065765	0.10666	0.048218	-0.006561	-0.10239	-0.005035	0.061188	0.1709	0.001068	-0.023956
42.967	0.004883	0.065918	-0.006714	0.02243	0.002747	0.00412	0.012817	0.057526	-0.17258	0.041962	-0.051422	-0.027618	0.14328	-0.54749	-0.13245	0.02243	-0.12344	0.38437	0.76096	0.019684	-0.016327	0.068817	0.055542	0.097198	0.055084	-0.005341	0.04715	0.008545	0.039825	0.11536	-0.003052	-0.016174
42.968	-0.023346	0.10513	-0.15442	-0.00473	-0.005951	0.027313	-0.016022	0.033875	-0.03479	0.005493	-0.056763	-0.022278	-0.084534	-0.45456	-0.13825	0.027466	-0.11307	0.39749	0.061188	-0.067596	-0.021973	0.043182	0.010529	0.098419	0.058746	-0.002899	-0.044861	-0.003662	0.083008	0.061951	-0.003967	-0.001831
42.969	-0.031891	0.1294	-0.12924	0.008545	-0.001373	0.020294	-0.004578	-0.027313	0.14099	0.021667	-0.045013	-0.018158	-0.082397	-0.24017	0.38345	0.002899	-0.12054	0.43594	0.29831	-0.19974	-0.041504	0.029755	0.001526	0.14099	0.050964	0.003357	-0.10361	0.003357	0.0914	0.083771	-0.00061	-0.005188
42.97	-0.019531	0.10925	0.074463	-0.01236	0.001526	0.018311	-0.0177	-0.037079	0.25848	0.038605	0	-0.025024	0.065002	-0.20874	0.14038	0.017853	-0.13031	0.35385	0.36713	-0.28168	-0.026093	0.058899	-0.017548	0.16525	0.046082	-0.00061	-0.019226	-0.000458	0.095215	0.04364	0.001526	-0.002747
42.971	-0.021667	0.09201	-0.035553	-0.022736	0.021362	0.019989	-0.068054	-0.026703	0.19241	0.067749	-0.038605	-0.015717	0.039368	-0.009613	0.34149	0.00946	-0.098114	0.28336	-0.062561	-0.31723	0.00351	0.045013	-0.012512	0.17517	0.034027	-0.003662	-0.16052	-0.002136	0.093536	0.041199	-0.005951	-0.009766
42.972	-0.019226	0.11261	-0.008392	-0.004578	0.007629	0.032043	-0.072479	-0.023956	0.23132	0.076294	-0.059509	-0.017242	-0.002289	0.076447	0.06546	0.011749	-0.094299	0.31235	0.36362	-0.24185	-0.000153	0.003357	-0.026093	0.21637	0.037537	-0.00412	-0.26886	0.000916	-0.033569	0.02182	-0.003967	-0.01358
